<?xml version="1.0" encoding="UTF-8" standalone="no"?>
<svg
   xmlns:dc="http://purl.org/dc/elements/1.1/"
   xmlns:cc="http://creativecommons.org/ns#"
   xmlns:rdf="http://www.w3.org/1999/02/22-rdf-syntax-ns#"
   xmlns:svg="http://www.w3.org/2000/svg"
   xmlns="http://www.w3.org/2000/svg"
   xmlns:sodipodi="http://sodipodi.sourceforge.net/DTD/sodipodi-0.dtd"
   xmlns:inkscape="http://www.inkscape.org/namespaces/inkscape"
   id="svg"
   version="1.1"
   width="500"
   height="500"
   style="display:block"
   inkscape:version="0.91 r13725"
   sodipodi:docname="fhemsocket.svg">
  <metadata
     id="metadata3394">
    <rdf:RDF>
      <cc:Work
         rdf:about="">
        <dc:format>image/svg+xml</dc:format>
        <dc:type
           rdf:resource="http://purl.org/dc/dcmitype/StillImage" />
        <dc:title />
      </cc:Work>
    </rdf:RDF>
  </metadata>
  <defs
     id="defs3392" />
  <sodipodi:namedview
     pagecolor="#ffffff"
     bordercolor="#666666"
     borderopacity="1"
     objecttolerance="10"
     gridtolerance="10"
     guidetolerance="10"
     inkscape:pageopacity="0"
     inkscape:pageshadow="2"
     inkscape:window-width="1095"
     inkscape:window-height="869"
     id="namedview3390"
     showgrid="false"
     inkscape:zoom="1.2037422"
     inkscape:cx="285.78432"
     inkscape:cy="205.3689"
     inkscape:window-x="1434"
     inkscape:window-y="238"
     inkscape:window-maximized="0"
     inkscape:current-layer="svg" />
  <g
     id="g3431"
     transform="matrix(0.79102348,0,0,0.79371313,-33.954489,7.6751916)">
    <path
       id="path1"
       d="m 233.09381,-7.1005028 c -3.3,1.688 -8.88,4.391 -12.4,6.006 -3.52,1.61500004 -9.1,4.194 -12.4,5.73 -5.558,2.587 -7.433,3.433 -12.8,5.7719998 -1.1,0.479 -2.54,1.201 -3.2,1.604 -1.148,0.701 -5.518,2.765 -19.6,9.254 -3.52,1.622 -6.94,3.283 -7.6,3.692 -0.66,0.409 -1.74,0.964 -2.4,1.234 -2.526,1.035 -8.533,3.661 -11.6,5.071 -1.76,0.81 -4.1,1.864 -5.2,2.344 -1.1,0.48 -2.54,1.213 -3.2,1.629 -0.66,0.417 -3.36,1.730003 -6,2.919003 -2.64,1.189 -8.4,3.865 -12.8,5.945 -9.534,4.509 -17.865,8.36199 -22.8,10.54599 -1.979995,0.877 -6.839994,3.132 -10.799994,5.012 -6.83,3.242 -11.94,5.661 -27.6,13.065 -3.74,1.768 -8.96,4.163 -11.6,5.322 -8.541,3.749 -8.801,4.181 -6.023,9.989 7.495,15.672 7.476,15.643 10.223,15.908 3.224,0.311 3.363,-0.892 0.684,-5.923 -2.748,-5.162 -2.112,-6.382 5.027,-9.646 3.349,-1.532 6.629,-3.132 7.289,-3.557 0.66,-0.424 1.88,-0.996 2.711,-1.271 0.831,-0.274 3.1,-1.344 5.042,-2.376 1.942,-1.033 3.906,-1.878 4.363,-1.878 0.457,0 1.747,-0.72 2.866,-1.6 1.118,-0.88 2.519,-1.6 3.112,-1.6 0.593,0 4.595,-1.657 8.892,-3.683 4.297999,-2.026 10.873994,-5.115 14.613994,-6.865 3.74,-1.749 9.619,-4.592 13.065,-6.316 3.446,-1.725 6.721,-3.136 7.278,-3.136 0.556,0 1.842,-0.72 2.857,-1.6 1.015,-0.88 2.337,-1.6 2.939,-1.6 0.602,0 4.236,-1.482 8.077,-3.29299 3.841,-1.811 9.144,-4.292 11.784,-5.513 2.64,-1.221 8.94,-4.2 14,-6.62 5.06,-2.421003 9.977,-4.634003 10.928,-4.918003 0.95,-0.285 2.164,-1.044 2.698,-1.687 0.533,-0.643 1.556,-1.18 2.272,-1.194 0.716,-0.014 3.102,-0.91 5.302,-1.993 2.2,-1.082 4.45,-1.971 5,-1.975 0.55,-0.004 1,-0.339 1,-0.745 0,-0.406 1.35,-1.183 3,-1.728 1.65,-0.544 5.771,-2.372 9.158,-4.062 3.387,-1.689 6.673,-3.072 7.302,-3.072 0.629,0 1.577,-0.522 2.106,-1.159 0.529,-0.638 2.113,-1.539 3.519,-2.003 1.406,-0.464 5.421,-2.283 8.921,-4.0409998 3.5,-1.758 6.979,-3.197 7.732,-3.197 0.752,0 1.59,-0.36 1.862,-0.8 1.747,-2.826 6.761,-0.09 18.782,10.2469998 0.67,0.576 3.413,2.745 6.097,4.821 2.683,2.076 5.534,4.43 6.335,5.231 0.801,0.802 4.726,3.911 8.721,6.911 3.996,2.999 8.345,6.485003 9.665,7.745003 1.32,1.261 5.248,4.442 8.729,7.069 3.481,2.627 7.261,5.68799 8.4,6.80299 1.139,1.115 4.411,3.803 7.271,5.974 2.86,2.171 7.729,6.119 10.82,8.773 3.09,2.654 6.636,5.546 7.879,6.426 3.67,2.597 7.155,5.414 10.393,8.4 1.671,1.54 4.537,3.813 6.37,5.051 1.832,1.239 3.621,2.769 3.975,3.4 0.353,0.632 1.147,1.149 1.763,1.149 0.616,0 1.408,0.507 1.76,1.128 0.603,1.063 7.693,6.952 12.607,10.472 1.229,0.88 3.359,2.615 4.734,3.855 4.606,4.156 29.587,24.135 31.189,24.945 2.633,1.33 2.36,2.416 -1.892,7.526 -4.048,4.864 -4.454,6.474 -1.635,6.474 1.577,0 2.038,-0.448 9.884,-9.6 7.404,-8.636 7.415,-8.306 -0.513,-15.292 -3.687,-3.249 -7.729,-6.628 -8.981,-7.508 -1.253,-0.88 -4.274,-3.315 -6.715,-5.411 -2.441,-2.097 -7.138,-5.839 -10.438,-8.317 -3.3,-2.478 -6.813,-5.263 -7.808,-6.189 -0.994,-0.925 -2.614,-2.44 -3.6,-3.364 -0.985,-0.925 -4.672,-3.906 -8.192,-6.625 -3.52,-2.72 -10.256,-8.083 -14.968,-11.919 -4.713,-3.836 -12.813,-10.428 -18,-14.649 -5.188,-4.221 -10.332,-8.44099 -11.432,-9.37899 -1.1,-0.938 -4.88,-3.983 -8.4,-6.767 -9.774,-7.731003 -24.425,-19.595003 -28,-22.675003 -1.76,-1.516 -6.177,-5.105 -9.816,-7.975 -3.638,-2.8709998 -7.418,-5.9499998 -8.4,-6.8429998 -17.027,-15.5010002 -23.025,-17.5850002 -34.184,-11.878 M 85.893816,92.70449 l -6,2.986 0.232,3.2 c 0.127,1.76 -0.336,6.419 -1.031,10.353 -0.694,3.934 -1.612,11.75 -2.04,17.369 -0.428,5.62 -1.121,11.121 -1.541,12.225 -0.42,1.105 -1.162,6.788 -1.649,12.631 -0.488,5.842 -1.206,12.08 -1.596,13.861 -0.39,1.781 -1.272,8.621 -1.959,15.2 -0.687,6.579 -1.428,12.533 -1.646,13.232 -0.218,0.7 -0.918,6.46 -1.556,12.8 -0.638,6.341 -1.7,14.409 -2.359,17.929 -0.66,3.52 -1.212,8.61 -1.227,11.312 -0.015,2.701 -0.559,7.741 -1.207,11.2 -0.649,3.458 -1.562,10.402 -2.029,15.429 -0.466,5.028 -1.188,10.655 -1.602,12.506 -0.415,1.85 -1.123,7.997 -1.574,13.659 -0.45,5.662 -1.142,11.649 -1.536,13.306 -1.698,7.135 3.692,14.578 11.12,15.357 2.42,0.254 8.907,1.175 14.415,2.046 5.509,0.872 11.679,1.585 13.712,1.585 2.033,0 6.571994,0.546 10.086994,1.212 3.515,0.667 10.665,1.551 15.888,1.965 5.224,0.414 10.716,1.117 12.205,1.563 1.489,0.445 7.899,1.198 14.244,1.671 6.345,0.474 12.4,1.19 13.456,1.592 1.056,0.401 6.526,1.125 12.156,1.608 5.631,0.483 11.781,1.223 13.668,1.644 1.887,0.421 7.826,1.125 13.197,1.564 5.371,0.438 12.287,1.303 15.369,1.921 3.081,0.618 9.023,1.363 13.203,1.656 4.18,0.293 11.533,1.223 16.34,2.068 4.807,0.845 10.625,1.536 12.93,1.536 2.304,0 7.011,0.542 10.46,1.205 3.448,0.663 9.33,1.411 13.07,1.662 3.74,0.252 9.5,0.972 12.8,1.602 3.3,0.63 10.619,1.496 16.265,1.925 5.645,0.429 11.585,1.125 13.2,1.547 21.412,5.604 29.984,1.175 31.357,-16.201 0.388,-4.917 1.07,-10.154 1.514,-11.637 0.445,-1.484 1.179,-7.604 1.631,-13.6 0.453,-5.997 1.192,-12.163 1.642,-13.703 0.451,-1.54 1.189,-7.288 1.641,-12.774 0.451,-5.485 1.191,-11.605 1.643,-13.6 0.452,-1.994 1.151,-7.9 1.552,-13.123 0.402,-5.223 1.245,-12.063 1.874,-15.2 0.63,-3.137 1.384,-9.123 1.677,-13.303 0.293,-4.18 1.223,-11.533 2.068,-16.34 0.845,-4.807 1.536,-10.617 1.536,-12.912 0,-2.294 0.546,-7.047 1.212,-10.562 0.667,-3.515 1.554,-10.665 1.97,-15.888 0.417,-5.224 1.122,-10.758 1.566,-12.298 0.445,-1.54 1.175,-7.637 1.622,-13.548 0.472,-6.234 1.192,-10.981 1.714,-11.304 1.325,-0.819 -7.259,-8.73 -9.484,-8.74 -1.558,-0.007 -1.8,0.408 -1.8,3.092 0,1.705 -0.692,7.375 -1.539,12.6 -0.846,5.225 -1.747,12.358 -2.002,15.852 -0.256,3.493 -0.976,9.253 -1.602,12.8 -0.626,3.546 -1.363,10.162 -1.638,14.702 -0.275,4.54 -0.824,9.107 -1.22,10.149 -0.396,1.042 -1.108,5.788 -1.581,10.546 -0.473,4.758 -1.553,14.051 -2.4,20.651 -0.847,6.6 -2.278,18.12 -3.182,25.6 -3.552,29.42 -4.92,40.366 -6.147,49.2 -0.703,5.06 -1.565,12.76 -1.916,17.112 -1.656,20.56 -3.195,22.348 -17.276,20.07 -4.343,-0.702 -11.854,-1.608 -16.69,-2.013 -4.836,-0.405 -10.776,-1.154 -13.2,-1.666 -2.424,-0.512 -7.647,-1.196 -11.607,-1.52 -6.72,-0.55 -15.728,-1.645 -45.6,-5.547 -6.6,-0.862 -13.98,-1.769 -16.4,-2.015 -6.452,-0.656 -23.107,-2.737 -33.2,-4.15 -4.84,-0.677 -12.58,-1.549 -17.2,-1.938 -4.62,-0.389 -11.28,-1.236 -14.8,-1.882 -3.52,-0.646 -9.46,-1.399 -13.2,-1.675 -3.74,-0.275 -9.5,-1.012 -12.8,-1.638 -3.3,-0.626 -7.98,-1.144 -10.4,-1.153 -2.42,-0.008 -7.46,-0.558 -11.2,-1.223 -3.74,-0.665 -11.659995,-1.729 -17.599994,-2.364 -15.621,-1.671 -17.69,-2.018 -20.8,-3.486 l -2.8,-1.322 -0.23,-6.941 c -0.129,-3.885 0.336,-10.224 1.056,-14.395 0.708,-4.1 1.633,-11.414 2.054,-16.254 0.422,-4.84 1.126,-10.78 1.565,-13.2 0.438,-2.42 1.322,-9.44 1.963,-15.6 0.642,-6.16 1.509,-13 1.928,-15.2 0.42,-2.2 0.973,-6.52 1.23,-9.6 0.488,-5.839 2.715,-23.821 4.903,-39.6 0.702,-5.06 1.582,-12.8 1.955,-17.2 0.373,-4.4 1.062,-10.16 1.532,-12.8 0.469,-2.64 1.209,-8.76 1.645,-13.6 0.436,-4.84 1.313,-11.68 1.949,-15.2 1.421,-7.87 1.971,-22.934 0.85,-23.307 -0.44,-0.146 -3.5,1.078 -6.8,2.721"
       inkscape:connector-curvature="0"
       style="fill:#e6e600;fill-rule:evenodd;stroke:none" />
    <path
       id="path2"
       d="m 240.69381,4.8904972 c -0.272,0.44 -1.11,0.8 -1.862,0.8 -0.753,0 -4.232,1.439 -7.732,3.197 -3.5,1.7579998 -7.515,3.5769998 -8.921,4.0409998 -1.406,0.464 -2.99,1.365 -3.519,2.003 -0.529,0.637 -1.477,1.159 -2.106,1.159 -0.629,0 -3.915,1.383 -7.302,3.072 -3.387,1.69 -7.508,3.518 -9.158,4.062 -1.65,0.545 -3,1.322 -3,1.728 0,0.406 -0.45,0.741 -1,0.745 -0.55,0.004 -2.8,0.893 -5,1.975 -2.2,1.083 -4.586,1.979 -5.302,1.993 -0.716,0.014 -1.739,0.551 -2.272,1.194 -0.534,0.643 -1.748,1.402 -2.698,1.687 -0.951,0.284 -5.868,2.497 -10.928,4.918003 -5.06,2.42 -11.36,5.399 -14,6.62 -2.64,1.221 -7.943,3.702 -11.784,5.513 -3.841,1.81099 -7.475,3.29299 -8.077,3.29299 -0.602,0 -1.924,0.72 -2.939,1.6 -1.015,0.88 -2.301,1.6 -2.857,1.6 -0.557,0 -3.832,1.411 -7.278,3.136 -3.446,1.724 -9.325,4.567 -13.065,6.316 -3.74,1.75 -10.315995,4.839 -14.613994,6.865 -4.297,2.026 -8.299,3.683 -8.892,3.683 -0.593,0 -1.994,0.72 -3.112,1.6 -1.119,0.88 -2.409,1.6 -2.866,1.6 -0.457,0 -2.421,0.845 -4.363,1.878 -1.942,1.032 -4.211,2.102 -5.042,2.376 -0.831,0.275 -2.051,0.847 -2.711,1.271 -0.66,0.425 -3.94,2.025 -7.289,3.557 -7.139,3.264 -7.775,4.484 -5.027,9.646 1.054,1.979 1.916,4.155 1.916,4.835 0,1.579 3.392,1.64 6.277,0.113 1.167,-0.619 4.103,-2.017 6.523,-3.108 2.42,-1.091 8.243,-3.863 12.941,-6.159 4.698,-2.297 8.954,-3.921 9.458,-3.609 1.128,0.697 0.416,13.733 -1.267,23.2 -0.626,3.52 -1.495,10.36 -1.931,15.2 -0.436,4.84 -1.176,10.96 -1.645,13.6 -0.47,2.64 -1.159,8.4 -1.532,12.8 -0.373,4.4 -1.253,12.14 -1.955,17.2 -2.188,15.779 -4.415,33.761 -4.903,39.6 -0.257,3.08 -0.81,7.4 -1.23,9.6 -0.419,2.2 -1.286,9.04 -1.928,15.2 -0.641,6.16 -1.525,13.18 -1.963,15.6 -0.439,2.42 -1.143,8.36 -1.565,13.2 -0.421,4.84 -1.346,12.154 -2.054,16.254 -0.72,4.171 -1.185,10.51 -1.056,14.395 l 0.23,6.941 2.8,1.322 c 3.11,1.468 5.179,1.815 20.8,3.486 5.939999,0.635 13.859994,1.699 17.599994,2.364 3.74,0.665 8.78,1.215 11.2,1.223 2.42,0.009 7.1,0.527 10.4,1.153 3.3,0.626 9.06,1.363 12.8,1.638 3.74,0.276 9.68,1.029 13.2,1.675 3.52,0.646 10.18,1.493 14.8,1.882 4.62,0.389 12.36,1.261 17.2,1.938 10.093,1.413 26.748,3.494 33.2,4.15 2.42,0.246 9.8,1.153 16.4,2.015 29.872,3.902 38.88,4.997 45.6,5.547 3.96,0.324 9.183,1.008 11.607,1.52 2.424,0.512 8.364,1.261 13.2,1.666 4.836,0.405 12.347,1.311 16.69,2.013 14.081,2.278 15.62,0.49 17.276,-20.07 0.351,-4.352 1.213,-12.052 1.916,-17.112 1.227,-8.834 2.595,-19.78 6.147,-49.2 0.904,-7.48 2.335,-19 3.182,-25.6 0.847,-6.6 1.927,-15.893 2.4,-20.651 0.473,-4.758 1.185,-9.504 1.581,-10.546 0.396,-1.042 0.945,-5.609 1.22,-10.149 0.275,-4.54 1.012,-11.156 1.638,-14.702 0.626,-3.547 1.346,-9.307 1.602,-12.8 0.255,-3.494 1.156,-10.627 2.002,-15.852 0.847,-5.225 1.539,-10.895 1.539,-12.6 0,-4.532 2.466,-4.194 8.005,1.1 2.417,2.31 5.329,4.681 6.47,5.268 1.141,0.588 3.707,2.568 5.701,4.4 1.995,1.833 4.433,3.872 5.418,4.532 0.985,0.66 2.668,1.871 3.741,2.691 1.072,0.82 2.049,1.36 2.171,1.2 0.121,-0.16 2.099,-2.58 4.395,-5.378 4.349,-5.299 4.628,-6.38 1.989,-7.713 -1.602,-0.81 -26.583,-20.789 -31.189,-24.945 -1.375,-1.24 -3.505,-2.975 -4.734,-3.855 -4.914,-3.52 -12.004,-9.409 -12.607,-10.472 -0.352,-0.621 -1.144,-1.128 -1.76,-1.128 -0.616,0 -1.41,-0.517 -1.763,-1.149 -0.354,-0.631 -2.143,-2.161 -3.975,-3.4 -1.833,-1.238 -4.699,-3.511 -6.37,-5.051 -3.238,-2.986 -6.723,-5.803 -10.393,-8.4 -1.243,-0.88 -4.789,-3.772 -7.879,-6.426 -3.091,-2.654 -7.96,-6.602 -10.82,-8.773 -2.86,-2.171 -6.132,-4.859 -7.271,-5.974 -1.139,-1.115 -4.919,-4.17599 -8.4,-6.80299 -3.481,-2.627 -7.409,-5.808 -8.729,-7.069 -1.32,-1.26 -5.669,-4.746003 -9.665,-7.745003 -3.995,-3 -7.92,-6.109 -8.721,-6.911 -0.801,-0.801 -3.652,-3.155 -6.335,-5.231 -2.684,-2.076 -5.427,-4.245 -6.097,-4.821 -12.021,-10.3369998 -17.035,-13.0729998 -18.782,-10.2469998 m 8.532,20.1169998 c 1.613,1.476 3.871,3.403 5.02,4.283 1.148,0.88 2.529,1.96 3.068,2.4 0.539,0.44 2.42,1.873 4.18,3.185 1.76,1.312003 3.92,3.134003 4.8,4.049003 0.88,0.915 4.776,4.097 8.657,7.071 3.881,2.975 7.841,6.11999 8.8,6.98899 3.57,3.237 4.266,3.805 9.743,7.965 3.08,2.339 5.96,4.683 6.4,5.209 0.44,0.526 3.86,3.357 7.6,6.291 3.74,2.935 7.519,5.945 8.398,6.689 0.878,0.743 5.558,4.486 10.4,8.317 4.841,3.831 9.522,7.643 10.402,8.47 0.88,0.828 5.071,4.262 9.313,7.632 10.079,8.006 9.761,5.773 5.495,38.533 -2.158,16.577 -3.085,24.278 -4.045,33.6 -0.453,4.4 -1.338,11.24 -1.965,15.2 -0.628,3.96 -1.521,11.16 -1.985,16 -0.464,4.84 -1.39,12.4 -2.058,16.8 -0.668,4.4 -1.535,11.42 -1.927,15.6 -0.392,4.18 -1.099,9.94 -1.571,12.8 -0.472,2.86 -1.194,8.8 -1.604,13.2 -0.825,8.845 -2.489,22.16 -4.9,39.2 -0.871,6.16 -1.577,12.182 -1.569,13.382 0.024,3.246 -2.959,4.942 -6.918,3.936 -3.324,-0.846 -8.743,-1.558 -31.466,-4.138 -8.14,-0.925 -19.66,-2.363 -25.6,-3.197 -5.94,-0.833 -15.059,-1.92 -20.265,-2.414 -5.206,-0.494 -10.426,-1.217 -11.6,-1.607 -1.174,-0.39 -6.455,-1.08 -11.735,-1.533 -5.28,-0.454 -11.76,-1.182 -14.4,-1.619 -2.64,-0.436 -8.58,-1.149 -13.2,-1.583 -4.62,-0.434 -11.64,-1.329 -15.6,-1.991 -3.96,-0.661 -8.82,-1.208 -10.8,-1.216 -1.98,-0.008 -8.28,-0.728 -14,-1.599 -9.853,-1.5 -15.51,-2.196 -33.2,-4.086 -4.18,-0.446 -12.28,-1.523 -18,-2.392 -5.719994,-0.869 -12.019994,-1.662 -13.999994,-1.762 l -3.6,-0.181 0.085,-7.6 c 0.047,-4.18 0.681,-11.74 1.408,-16.8 2.285,-15.897 3.854,-28.146 4.561,-35.6 0.376,-3.96 1.224,-10.98 1.886,-15.6 0.662,-4.62 1.565,-11.82 2.007,-16 0.442,-4.18 1.159,-9.58 1.593,-12 0.433,-2.42 1.146,-8.54 1.582999,-13.6 0.437,-5.06 1.176,-10.985 1.642995,-13.167 0.467,-2.182 1.201,-8.122 1.633,-13.2 0.431,-5.078 1.167,-11.393 1.636,-14.033 0.469,-2.64 1.174,-8.58 1.566,-13.2 0.393,-4.62 1.077,-10.081 1.52,-12.136 0.444,-2.055 1.202,-8.355 1.684,-14 1.202,-14.053 2.248,-15.892 10.395,-18.27 1.1,-0.321 2.54,-1.041 3.2,-1.6 0.66,-0.559 2.345,-1.259 3.745,-1.556 1.399,-0.298 2.973,-1.058 3.498,-1.689 0.524,-0.632 1.416,-1.149 1.981,-1.149 0.566,0 2.772,-0.883 4.902,-1.961 5.124,-2.594 28.743,-13.636 35.074,-16.396 4.609,-2.01 7.033,-3.13699 8.4,-3.90599 1.356,-0.763 6.668,-3.285 17.2,-8.166 14.894,-6.903003 20.919,-9.715003 24.88,-11.615003 2.244,-1.076 4.376,-1.956 4.737,-1.956 0.361,0 1.225,-0.475 1.92,-1.056 1.181,-0.986 4.626,-2.504 11.253,-4.956 3.29,-1.217 5.089,-0.529 9.742,3.729 m -56.353,89.558993 c -0.782,0.455 -3.122,1.122 -5.2,1.484 -9.914,1.722 -26.327,6.373 -27.507,7.794 -0.972,1.171 -0.306,8.341 1.002,10.784 0.854,1.595 5.846,2.087 6.726,0.662 0.272,-0.44 1.478,-0.8 2.679,-0.8 1.202,0 4.33,-0.575 6.953,-1.277 2.622,-0.703 6.928,-1.778 9.568,-2.39 15.081,-3.496 15.181,-3.561 14.455,-9.37 -0.818,-6.543 -4.392,-9.381 -8.676,-6.887 m 67.866,9.702 c -0.685,0.978 -1.245,2.194 -1.245,2.702 0,0.508 -0.54,1.372 -1.2,1.92 -3.355,2.784 -0.822,5.777 8.8,10.396 3.08,1.478 5.78,2.906 6,3.173 0.22,0.268 2.92,1.727 6,3.244 3.08,1.516 6.5,3.341 7.6,4.055 5.123,3.326 8.295,2.207 10.894,-3.842 1.995,-4.645 0.697,-6.903 -5.694,-9.904 -1.76,-0.826 -3.74,-1.828 -4.4,-2.226 -0.66,-0.399 -2.1,-1.123 -3.2,-1.61 -1.1,-0.487 -5.713,-2.865 -10.252,-5.286 -9.058,-4.83 -11.429,-5.298 -13.303,-2.622 m -122.645,63.106 c -2.629,2.723 -0.081,25.88 3.857,35.052 4.57,10.646 12.59,21.977 18.297,25.853 1.125,0.764 4.026,2.843 6.446,4.621 26.754,19.646 73.552,23.63 101.194,8.614 2.203,-1.197 5.375,-2.924 7.048,-3.838 11.794,-6.442 23.768,-24.174 28.099,-41.607 2.394,-9.639 1.973,-10.379 -5.905,-10.379 -5.659,0 -7.236,0.797 -7.236,3.658 0,10.292 -11.365,28.558 -21.969,35.308 -2.217,1.411 -4.466,2.941 -4.997,3.4 -0.532,0.459 -1.432,0.845 -2,0.859 -0.569,0.014 -2.834,0.91 -5.034,1.993 -2.2,1.082 -4.72,1.986 -5.6,2.01 -0.88,0.023 -3.04,0.579 -4.8,1.236 -10.764,4.014 -39.702,2.219 -52,-3.225 -1.32,-0.585 -4.74,-2.092 -7.6,-3.351 -8.583,-3.777 -18.128,-10.793 -22.167,-16.295 -1.451,-1.976 -3.14,-4.133 -3.753,-4.793 -1.329,-1.43 -4.552,-8.425 -6.45,-14 -0.835,-2.449 -1.537,-7.799 -1.813,-13.799 -0.31,-6.768 -0.782,-10.074 -1.526,-10.691 -1.674,-1.39 -10.892,-1.867 -12.091,-0.626"
       inkscape:connector-curvature="0"
       style="fill:#00d500;fill-rule:evenodd;stroke:none" />
  </g>
  <g
     style="display:block"
     id="g3394"
     transform="matrix(0.9407711,0,0,-0.95638874,187.56132,498.11383)">
    <g
       id="svgg">
      <path
         d="m 106,0.8 c -0.272,0.44 -1.395,0.8 -2.497,0.8 -10.954,0 -27.002,17.307 -29.197,31.488 -1.572,10.155 -0.521,189.233 1.132,192.912 3.597,8.007 5.276,10.614 9.762,15.165 10.341,10.491 14.59,11.634 43.24,11.635 26.789,0 25.16,-0.502 25.16,7.76 l 0,5.84 -3.8,0.003 c -4.789,0.004 -8.661,2.232 -9.353,5.382 -0.908,4.136 2.114,27.047 4.302,32.615 0.346,0.88 1.068,3.04 1.605,4.8 0.537,1.76 3.866,9.14 7.399,16.4 7.179,14.755 7.41,15.273 8.564,19.2 0.452,1.54 1.223,4.06 1.712,5.6 1.332,4.193 3.115,17.297 3.158,23.2 0.08,11.136 10.04,24.8 18.077,24.8 1.013,0 2.064,0.36 2.336,0.8 0.605,0.979 23.818,1.093 25.811,0.126 0.764,-0.37 3.061,-1.481 5.106,-2.467 10.019,-4.834 13.721,-11.879 15.093,-28.726 1.266,-15.549 3.737,-23.685 12.846,-42.293 3.489,-7.128 6.344,-13.496 6.344,-14.152 0,-0.657 0.318,-1.39 0.708,-1.631 0.389,-0.241 0.889,-1.432 1.11,-2.647 0.221,-1.216 0.955,-4.192 1.631,-6.614 6.392,-22.911 4.98,-33.247 -4.684,-34.284 L 246.8,266 l -0.238,-5.472 c -0.358,-8.225 -1.962,-7.728 24.936,-7.728 21.574,-0.001 23.623,-0.123 27.628,-1.645 11.27,-4.283 18.783,-10.996 23.8,-21.264 L 326,223.6 l 0,-96.8 0,-96.8 -2.961,-6 c -3.297,-6.682 -7.916,-12.758 -11.21,-14.746 -1.194,-0.72 -2.634,-1.77 -3.2,-2.333 C 306.932,5.234 298.646,1.6 296.497,1.6 295.395,1.6 294.272,1.24 294,0.8 293.317,-0.306 106.683,-0.306 106,0.8 m 185.046,12.866 c 9.104,2.101 16.249,7.654 20.279,15.761 l 1.875,3.773 0,93.279 c 0,72.958 -0.218,93.741 -1,95.4 -0.55,1.166 -1.374,2.931 -1.831,3.921 -1.343,2.909 -6.517,8.286 -9.969,10.359 -6.146,3.691 -8.19,3.929 -31.6,3.677 l -22,-0.236 -0.245,-4.767 c -0.461,-8.983 -2.047,-8.263 18.877,-8.568 l 18.235,-0.265 4.62,-2.8 c 5.432,-3.292 9.681,-9.096 10.924,-14.924 1.841,-8.626 0.637,-163.348 -1.303,-167.476 -2.269,-4.83 -6.96,-9.369 -12.308,-11.91 L 281.2,26.8 202,26.569 c -59.546,-0.174 -80.093,0.006 -82.8,0.726 -9.91,2.634 -15.833,8.415 -18.344,17.905 -1.244,4.701 -1.178,158.385 0.07,163.446 0.98,3.974 4.721,10.149 7.362,12.154 6.786,5.15 6.712,5.134 26.512,5.583 l 18.4,0.417 0,6.4 0,6.4 -22,0.236 c -23.478,0.253 -25.531,0.011 -31.6,-3.725 C 95.109,233.347 91.398,229.139 88.921,224 l -2.121,-4.4 0,-93.2 0,-93.2 2.744,-5.061 C 93.596,20.665 99.598,16.035 108,13.904 c 4.969,-1.261 177.64,-1.485 183.046,-0.238 m -7.49,29.491 2.844,2.757 0,80.981 0,80.98 -3.344,2.863 -3.344,2.862 -16.884,0 -16.883,0 -1.486,-2.6 c -7.763,-13.585 -26.962,-14.349 -35.015,-1.394 l -2.483,3.994 -6.974,0 -6.974,0 -2.212,-3.4 C 182.42,197.319 164.442,197.102 156.4,209.785 l -2.4,3.786 -16.24,0.014 c -17.596,0.016 -19.207,-0.304 -22.489,-4.477 -1.669,-2.122 -1.671,-2.204 -1.671,-82.355 l 0,-80.23 2.135,-2.537 c 3.358,-3.991 1.394,-3.905 85.221,-3.741 l 79.755,0.155 2.845,2.757 M 194,60.468 c -6.611,0.87 -13.317,2.275 -13.684,2.867 -0.226,0.366 -1.102,0.665 -1.948,0.665 -9.149,0 -30.033,18.347 -37.789,33.2 -15.167,29.044 -3.29,71.03 24.3,85.898 1.936,1.043 4.961,2.671 6.721,3.617 1.76,0.946 4.82,2.203 6.8,2.795 1.98,0.592 4.5,1.37 5.6,1.73 16.243,5.316 40.236,0.387 55.928,-11.488 10.4,-7.87 21.067,-22.683 23.514,-32.654 2.371,-9.663 2.903,-13.372 2.91,-20.298 0.009,-7.68 -0.491,-11.446 -2.438,-18.4 -1.691,-6.036 -4.285,-11.827 -7.231,-16.144 -1.256,-1.839 -2.283,-3.569 -2.283,-3.844 0,-0.274 -1.078,-1.649 -2.396,-3.055 -1.318,-1.407 -2.398,-2.8 -2.4,-3.097 -0.002,-0.298 -2.782,-2.921 -6.177,-5.829 C 235.188,69.373 225.088,64.304 214,61.663 210.267,60.774 197.485,60.01 194,60.468 m -0.561,18.168 c 0.57,10.741 12.56,10.683 13.122,-0.063 L 206.8,74 l 2.8,0.278 c 9.062,0.898 21.727,7.814 29.454,16.082 27.18,29.082 13.344,77.467 -25.147,87.944 -6.67,1.815 -7.507,1.453 -7.507,-3.252 0,-5.331 -2.081,-7.852 -6.481,-7.852 -4.133,0 -6.319,2.805 -6.319,8.108 0,4.686 -1.248,4.971 -9.662,2.209 -32.103,-10.539 -46.191,-45.02 -30.974,-75.813 2.613,-5.285 16.062,-20.104 18.247,-20.104 0.518,0 1.898,-0.659 3.066,-1.463 3.857,-2.659 15.747,-6.719 18.123,-6.189 0.44,0.098 0.908,2.208 1.039,4.688 m -19.546,36.499 c -9.484,5.783 -9.096,18.285 0.718,23.154 12.488,6.196 24.61,-9.524 15.488,-20.085 -3.957,-4.582 -11.411,-5.993 -16.206,-3.069 m 39.219,0.562 c -7.294,4.917 -8.322,14.002 -2.266,20.039 8.521,8.496 21.954,2.999 21.954,-8.984 0,-10.51 -11.182,-16.788 -19.688,-11.055 m -34.77,100.011 c 1.595,2.027 1.658,3.035 1.658,26.432 l 0,24.325 -6.6,-0.233 -6.6,-0.232 0,-24.517 c 0,-22.987 0.095,-24.622 1.524,-26.2 2.336,-2.58 7.838,-2.346 10.018,0.425 m 53.334,-0.425 c 1.418,1.565 1.541,3.408 1.767,26.4 l 0.242,24.717 -6.875,0 -6.875,0 0.232,-24.717 c 0.217,-22.999 0.339,-24.834 1.757,-26.4 2.113,-2.333 7.639,-2.333 9.752,0 M 206.4,233.2 l 0,6.8 -6.4,0 -6.4,0 0,-6.267 c 0,-7.617 -0.269,-7.333 6.933,-7.333 l 5.867,0 0,6.8 m -0.168,26.6 0.233,6.6 -6.433,0 -6.432,0 0,-6.267 c 0,-7.631 -0.171,-7.45 6.765,-7.165 l 5.635,0.232 0.232,6.6 m 39.442,21.2 c 0.284,3.825 -0.453,9.258 -2.144,15.8 -2.318,8.973 -1.689,7.422 -9.737,24 -9.232,19.019 -12.282,29.909 -13.441,48 -0.937,14.629 -5.143,18.4 -20.525,18.4 -14.107,0 -19.824,-4.814 -19.83,-16.698 -0.003,-7.043 -2.739,-23.356 -4.78,-28.502 -0.349,-0.88 -1.119,-3.22 -1.711,-5.2 -0.592,-1.98 -3.453,-8.46 -6.357,-14.4 -5.359,-10.962 -7.867,-17.028 -9.426,-22.8 -2.089,-7.733 -3.323,-13.918 -3.323,-16.651 l 0,-2.949 45.6,0 c 35.907,0 45.616,0.213 45.674,1"
         id="path0"
         inkscape:connector-curvature="0"
         style="fill:#000000;fill-rule:evenodd;stroke:none" />
    </g>
  </g>
</svg>
